<?xml version="1.0" encoding="UTF-8" standalone="no"?>
<!-- Created with Inkscape (http://www.inkscape.org/) -->

<svg
   width="198.9859mm"
   height="48mm"
   viewBox="0 0 198.9859 48"
   version="1.1"
   id="svg3134"
   xml:space="preserve"
   inkscape:version="1.2.2 (b0a8486541, 2022-12-01, custom)"
   sodipodi:docname="metal_brand.svg"
   inkscape:export-filename="../252f64a4/metal_brand.png"
   inkscape:export-xdpi="96"
   inkscape:export-ydpi="96"
   xmlns:inkscape="http://www.inkscape.org/namespaces/inkscape"
   xmlns:sodipodi="http://sodipodi.sourceforge.net/DTD/sodipodi-0.dtd"
   xmlns:xlink="http://www.w3.org/1999/xlink"
   xmlns="http://www.w3.org/2000/svg"
   xmlns:svg="http://www.w3.org/2000/svg"><sodipodi:namedview
     id="namedview3136"
     pagecolor="#ffffff"
     bordercolor="#000000"
     borderopacity="0.25"
     inkscape:showpageshadow="2"
     inkscape:pageopacity="0.0"
     inkscape:pagecheckerboard="0"
     inkscape:deskcolor="#d1d1d1"
     inkscape:document-units="mm"
     showgrid="false"
     inkscape:zoom="0.84631033"
     inkscape:cx="332.62031"
     inkscape:cy="47.854787"
     inkscape:window-width="1354"
     inkscape:window-height="733"
     inkscape:window-x="4"
     inkscape:window-y="27"
     inkscape:window-maximized="1"
     inkscape:current-layer="g1149" /><defs
     id="defs3131"><rect
       x="807.61542"
       y="815.6767"
       width="560.59412"
       height="253.57541"
       id="rect6134" /><linearGradient
       inkscape:collect="always"
       id="linearGradient1907"><stop
         style="stop-color:#ead2d2;stop-opacity:1;"
         offset="0"
         id="stop1903" /><stop
         style="stop-color:#ead2d2;stop-opacity:0.37973318;"
         offset="1"
         id="stop1905" /></linearGradient><linearGradient
       inkscape:collect="always"
       id="linearGradient1812"><stop
         style="stop-color:#ffff00;stop-opacity:1;"
         offset="0"
         id="stop1808" /><stop
         style="stop-color:#ff0049;stop-opacity:0.98338974;"
         offset="1"
         id="stop1810" /></linearGradient><linearGradient
       inkscape:collect="always"
       id="linearGradient9340"><stop
         style="stop-color:#ffffff;stop-opacity:1"
         offset="0"
         id="stop9336" /><stop
         style="stop-color:#ff0000;stop-opacity:1"
         offset="1"
         id="stop9338" /></linearGradient><linearGradient
       inkscape:collect="always"
       id="linearGradient9276"><stop
         style="stop-color:#21376a;stop-opacity:1;"
         offset="0"
         id="stop9272" /><stop
         style="stop-color:#220055;stop-opacity:0;"
         offset="1"
         id="stop9274" /></linearGradient><linearGradient
       inkscape:collect="always"
       xlink:href="#linearGradient9276"
       id="linearGradient9278"
       x1="347.82364"
       y1="349.08026"
       x2="669.46954"
       y2="608.02448"
       gradientUnits="userSpaceOnUse"
       gradientTransform="matrix(1.1689387,0,0,1,-50.248191,1.2106499e-6)" /><linearGradient
       inkscape:collect="always"
       xlink:href="#linearGradient9340"
       id="linearGradient9954"
       x1="373.63608"
       y1="315.46506"
       x2="533.58252"
       y2="404.10031"
       gradientUnits="userSpaceOnUse"
       gradientTransform="translate(-130.66237,-215.3972)" /><linearGradient
       inkscape:collect="always"
       xlink:href="#linearGradient1812"
       id="linearGradient1814"
       x1="147.83865"
       y1="158.70018"
       x2="296.40265"
       y2="303.64365"
       gradientUnits="userSpaceOnUse"
       gradientTransform="matrix(1.0235916,0,0,1.0235916,-2.8500127,-0.7817902)" /><radialGradient
       inkscape:collect="always"
       xlink:href="#linearGradient1907"
       id="radialGradient1911"
       cx="232.71176"
       cy="239.45496"
       fx="232.71176"
       fy="239.45496"
       r="98.074348"
       gradientTransform="matrix(4.5677403,-0.66056383,0.34727766,2.401394,-910.77245,-176.98245)"
       gradientUnits="userSpaceOnUse" /></defs><g
     inkscape:label="Layer 1"
     inkscape:groupmode="layer"
     id="layer1"
     transform="translate(-3.4844275,-248.06597)"><g
       id="g1149"
       transform="matrix(0.26458333,0,0,0.26458333,11.310997,87.410668)"><g
         id="g5918"
         transform="matrix(0.708658,0,0,0.708658,-29.581052,607.20137)"><g
           id="g8377"
           transform="matrix(0.52389716,0,0,0.52389716,4.69979,1.9377742e-4)">
	<path
   id="path8375"
   style="fill:url(#linearGradient9278);fill-opacity:1;stroke-width:1.08117"
   d="M 72.878939,0.00708626 C 67.332793,-0.05741361 61.650913,0.26331578 55.84539,1.0733141 50.036947,2.0263123 44.454289,3.2648177 38.535964,5.5358133 35.600765,6.7198109 32.289718,8.0603237 30.371491,9.1893213 l -3.35899,1.7708327 c 0.334317,-0.219998 -0.930946,0.535851 -0.973026,0.577851 l -0.462281,0.313158 -0.917105,0.6375 -1.841666,1.263815 C 12.973641,20.528466 5.4649054,29.772379 0.610313,39.569359 -9.0369187,59.390321 -10.071751,80.525317 -8.1991151,100.86628 -3.9289907,141.7492 11.82401,181.28303 32.518859,218.93797 c 7.683419,13.89896 16.150426,27.53477 25.276311,40.88573 -2.654655,4.02 -5.298361,8.05993 -7.989252,12.33991 -4.896148,7.96128 -9.840591,16.54166 -14.722147,25.42916 A 36.075481,36.075481 0 0 0 31.05,297.34672 36.075481,36.075481 0 0 0 -5.026528,333.41952 36.075481,36.075481 0 0 0 7.5445222,360.57478 c -3.7033332,11.7544 -6.90957376,23.93511 -8.3620598,36.99736 -1.690282,16.96996 -1.6003257,35.67323 7.8774108,54.06819 4.7657528,9.07298 12.4060518,17.7688 22.5734608,24.1318 1.125686,0.687 1.95873,1.33162 3.32171,2.06162 l 4.425218,2.1921 c 3.046249,1.595 5.869774,2.4335 8.813156,3.53048 5.883256,1.997 12.00286,3.24252 18.163155,4.11952 24.809506,3.033 48.974467,-1.42455 71.526737,-8.02653 35.7344,-10.89798 68.68658,-27.56058 99.46117,-47.16754 30.77693,19.60196 63.73402,36.26956 99.46489,47.16754 22.54294,6.59498 46.71329,11.05853 71.51929,8.02653 6.1638,-0.871 12.28011,-2.12252 18.16688,-4.11952 2.94573,-1.08998 5.76317,-1.92848 8.80943,-3.53048 l 4.42894,-2.1921 c 1.35245,-0.73 2.19719,-1.37362 3.32171,-2.06162 10.16507,-6.358 17.81239,-15.05882 22.57346,-24.1318 9.47307,-18.39396 9.55717,-37.09723 7.87741,-54.06819 -1.89366,-17.09796 -6.39904,-33.02 -11.74341,-47.90196 -10.9845,-29.72794 -25.26471,-55.35461 -38.8875,-77.50657 -2.69087,-4.27998 -5.33671,-8.31991 -7.98552,-12.33991 9.12588,-13.35096 17.5964,-26.98677 25.27631,-40.88573 20.69836,-37.65494 36.45013,-77.18877 40.73661,-118.07169 1.87264,-20.340963 0.8425,-41.476959 -8.80942,-61.296921 -4.85459,-9.80298 -12.35749,-19.039893 -22.20811,-25.816881 l -1.83794,-1.263815 -0.91711,-0.6375 -0.45855,-0.313158 c -0.0491,-0.042 -1.3148,-0.797849 -0.98048,-0.577851 L 440.33238,9.1893213 C 438.41882,8.0603237 435.10777,6.7208109 432.16791,5.5358133 426.25308,3.2638177 420.66693,2.0263123 414.85848,1.0733141 391.63989,-2.1566793 370.44343,2.4354645 351.65279,8.1044531 332.78382,13.959441 315.87681,21.673386 300.37319,29.83537 275.41174,43.191344 254.07246,57.673327 235.35193,71.623301 216.63492,57.673327 195.29332,43.198344 170.33067,29.83537 154.82825,21.679386 137.92494,13.959441 119.05481,8.1044531 104.96181,3.8519617 89.517381,0.20058588 72.878939,0.00708626 Z M 87.198454,15.366732 c 9.311018,0.529375 18.688126,2.054004 27.658546,4.0375 18.03668,4.27099 35.0067,10.580387 50.76512,17.488373 25.27475,11.166978 47.27108,24.208414 66.51995,37.120388 -3.32446,2.505996 -6.59554,4.993143 -9.75636,7.456139 -21.48972,17.009966 -39.17045,32.720328 -53.12872,46.101308 -13.99335,13.36198 -24.43802,24.25725 -31.5171,31.70723 -6.9248,7.55392 -10.61632,11.57026 -10.62127,11.57566 0.005,-0.005 3.73726,-3.99814 10.73684,-11.5011 7.21818,-7.33798 17.58349,-18.3049 31.97193,-31.34188 14.32881,-13.06398 32.43236,-28.40461 54.75788,-44.397578 3.47058,-2.462996 7.08641,-4.962145 10.75921,-7.456139 3.67162,2.499994 7.28565,4.994599 10.74802,7.463595 22.33254,15.992968 40.43397,31.333602 54.76161,44.397582 14.3861,13.03096 24.75119,23.99788 31.9682,31.34188 7.00425,7.50798 10.74802,11.51228 10.74802,11.51228 0,0 -3.70232,-4.03268 -10.62127,-11.57566 -7.07439,-7.45298 -17.52376,-18.34798 -31.51709,-31.71096 -13.95827,-13.38698 -31.63899,-29.095068 -53.12872,-46.105034 -3.16315,-2.454994 -6.43563,-4.950143 -9.76009,-7.456139 19.25121,-12.911974 41.25149,-25.952411 66.5274,-37.120387 15.7596,-6.913986 32.72843,-13.217382 50.76512,-17.488374 17.93618,-3.967992 37.50478,-6.108167 54.92192,-2.095175 4.20585,1.034998 8.55537,2.449617 11.9932,4.145613 1.67158,0.891998 3.15354,1.39937 5.4318,2.997368 l 3.15767,2.024342 c 0.60551,0.379998 -0.3632,-0.238474 -0.17149,-0.08947 l 0.28706,0.242324 0.55921,0.488378 1.14079,0.969298 c 6.09251,5.10499 10.50361,11.68538 13.28684,19.147364 5.65181,15.04597 4.69127,32.845816 1.50242,50.44078 -7.02649,35.547922 -24.88239,71.304202 -45.93728,105.754142 -4.44194,7.09098 -9.16044,14.11235 -13.93552,21.10833 -2.03629,-2.694 -4.09386,-5.44306 -6.05066,-7.93706 -11.61573,-14.93998 -21.33933,-26.31102 -27.99407,-34.041 -6.8184,-7.63298 -10.45724,-11.69868 -10.45724,-11.69868 0,0 3.58968,4.09553 10.33794,11.76951 6.51331,7.81798 16.3186,19.14292 27.4796,34.31688 1.97901,2.658 4.04552,5.58163 6.10285,8.47763 -18.24358,26.66194 -38.73164,52.64294 -61.19626,77.3649 -27.73068,30.80494 -58.35769,59.60462 -90.94998,85.58156 -32.58879,-25.97694 -63.21907,-54.77808 -90.94626,-85.58902 -22.47162,-24.72094 -42.95383,-50.70294 -61.196256,-77.3649 2.057328,-2.88998 4.124788,-5.8099 6.099121,-8.4739 11.168015,-15.17796 20.966525,-26.50161 27.483325,-34.32061 6.73909,-7.67582 10.32194,-11.76774 10.32676,-11.77324 -0.005,0.005 -3.63246,4.06735 -10.44978,11.69123 -6.65243,7.73398 -16.37857,19.10948 -27.997805,34.04846 -1.946278,2.49398 -4.014369,5.23606 -6.050656,7.93706 -4.771598,-6.997 -9.494733,-14.01735 -13.935524,-21.10833 C 47.623692,168.98026 29.76544,133.21925 22.740133,97.671322 19.554781,80.076356 18.594245,62.277512 24.242545,47.230542 27.025782,39.766558 31.444344,33.188439 37.536841,28.079449 l 1.137061,-0.96557 0.562939,-0.484649 0.279605,-0.246052 c 0.19872,-0.149 -0.769545,0.476473 -0.164035,0.08947 l 3.153947,-2.028069 c 2.280593,-1.588998 3.762554,-2.091914 5.431797,-2.989912 3.429658,-1.694996 7.789924,-3.114343 11.996927,-4.149341 8.706823,-2.002996 17.952355,-2.46797 27.263372,-1.938597 z M 59.349775,262.07918 c 15.211368,22.02396 32.194951,43.27701 50.481785,63.62697 28.36777,31.07194 59.92911,60.1247 94.59977,85.60766 -25.34021,17.59696 -51.9001,33.02482 -79.7956,43.68178 -19.11795,7.07 -39.060766,12.29626 -57.524114,11.38926 -18.382694,-0.695 -34.126471,-8.6313 -42.906351,-22.13728 -8.900284,-13.44398 -11.376294,-30.19505 -11.348244,-46.06403 0.216483,-10.8157 1.857033,-21.34244 3.94057,-31.67367 A 36.075481,36.075481 0 0 0 31.05,369.49605 36.075481,36.075481 0 0 0 67.126528,333.41952 36.075481,36.075481 0 0 0 40.001095,298.49124 c 4.152435,-8.74816 8.419832,-17.21669 12.749997,-25.06754 2.198769,-3.94 4.395239,-7.62952 6.598683,-11.34452 z m 351.989405,0 c 2.19176,3.708 4.39993,7.39708 6.59868,11.33706 12.39891,22.48596 24.88453,48.69099 32.77719,78.33793 3.90075,14.78496 6.7966,30.41994 7.11689,46.42192 0.0269,15.86196 -2.44703,32.62606 -11.35198,46.06402 -8.77638,13.50598 -24.52716,21.44928 -42.90635,22.13728 -18.47153,0.913 -38.40244,-4.32027 -57.52038,-11.38925 -27.89667,-10.65098 -54.45658,-26.0801 -79.7956,-43.67806 34.67066,-25.47596 66.23224,-54.53572 94.60349,-85.60766 18.28566,-20.34996 35.2667,-41.59928 50.47806,-63.62324 z" />
<circle
   style="opacity:1;fill:url(#linearGradient1814);fill-opacity:1;stroke:url(#radialGradient1911);stroke-width:0;stroke-dasharray:none;stroke-dashoffset:0"
   id="path9332"
   cx="235.35193"
   cy="244.32239"
   r="93.14492" /><circle
   style="fill:url(#linearGradient9954);fill-opacity:1;stroke:#ead2d2;stroke-width:0;stroke-dasharray:none"
   id="path9332-4-8"
   cx="287.22089"
   cy="113.39925"
   r="26.252829" /></g><g
           id="g8379">
</g><g
           id="g8381">
</g><g
           id="g8383">
</g><g
           id="g8385">
</g><g
           id="g8387">
</g><g
           id="g8389">
</g><g
           id="g8391">
</g><g
           id="g8393">
</g><g
           id="g8395">
</g><g
           id="g8397">
</g><g
           id="g8399">
</g><g
           id="g8401">
</g><g
           id="g8403">
</g><g
           id="g8405">
</g><g
           id="g8407">
</g></g><g
         id="g6142"
         transform="matrix(1.9793188,0,0,1.9793188,154.9934,121.48777)"><g
           id="g6148"
           transform="matrix(1.0740192,0,0,1.0740192,8.9300359,-25.255081)"><text
             xml:space="preserve"
             style="font-size:64px;font-family:'Noto Sans Cuneiform';-inkscape-font-specification:'Noto Sans Cuneiform';text-align:center;text-anchor:middle;fill:#4d4d4d;stroke:#d2e6ea;stroke-width:2;stroke-linejoin:bevel;stroke-dasharray:none;stroke-opacity:1;paint-order:normal"
             x="127.59184"
             y="315.73804"
             id="text6337"><tspan
               sodipodi:role="line"
               id="tspan6335"
               x="127.59184"
               y="315.73804"
               style="font-style:normal;font-variant:normal;font-weight:500;font-stretch:normal;font-size:64px;font-family:Orbitron;-inkscape-font-specification:'Orbitron Medium';fill:#4d4d4d;stroke:#d2e6ea;stroke-width:2;stroke-linejoin:bevel;stroke-dasharray:none;stroke-opacity:1;paint-order:normal">METAL</tspan></text><text
             xml:space="preserve"
             style="font-size:14.6667px;font-family:'Noto Sans Cuneiform';-inkscape-font-specification:'Noto Sans Cuneiform';text-align:center;text-anchor:middle;fill:#999999;stroke:#d2e6ea;stroke-width:0;stroke-linejoin:bevel;stroke-dasharray:none;stroke-opacity:1;paint-order:normal"
             x="68.698692"
             y="397.46924"
             id="text6337-3"
             transform="scale(1.1882578,0.84156821)"><tspan
               id="tspan6335-5"
               x="68.698692"
               y="397.46924"
               style="font-style:normal;font-variant:normal;font-weight:500;font-stretch:normal;font-size:14.6667px;font-family:Orbitron;-inkscape-font-specification:'Orbitron Medium';fill:#999999;stroke:#d2e6ea;stroke-width:0;stroke-linejoin:bevel;stroke-dasharray:none;stroke-opacity:1;paint-order:normal"
               sodipodi:role="line">Make ETL Simple</tspan></text></g></g></g><text
       xml:space="preserve"
       transform="scale(0.26458333)"
       id="text6132"
       style="font-weight:500;font-size:14.6667px;font-family:Orbitron;-inkscape-font-specification:'Orbitron Medium';text-align:center;white-space:pre;shape-inside:url(#rect6134);display:inline;fill:#999999;stroke:#d2e6ea;stroke-width:0;stroke-linejoin:bevel" /></g></svg>
