<?xml version="1.0" encoding="us-ascii" standalone="no"?><svg xmlns="http://www.w3.org/2000/svg" xmlns:xlink="http://www.w3.org/1999/xlink" contentStyleType="text/css" height="907px" preserveAspectRatio="none" style="width:628px;height:907px;background:#FFFFFF;" version="1.1" viewBox="0 0 628 907" width="628px" zoomAndPan="magnify"><defs/><g><!--class User--><g id="elem_User"><rect codeLine="1" fill="#F1F1F1" height="113.1875" id="User" rx="2.5" ry="2.5" style="stroke:#181818;stroke-width:0.5;" width="96" x="7" y="516.5"/><ellipse cx="36.85" cy="532.5" fill="#ADD1B2" rx="11" ry="11" style="stroke:#181818;stroke-width:1.0;"/><path d="M35.6469,533.375 L37.1,533.375 L37.1,533.4844 C37.1,533.8906 37.1313,534.0469 37.2094,534.2031 C37.3656,534.4531 37.6469,534.6094 37.9438,534.6094 C38.1938,534.6094 38.4594,534.4688 38.6156,534.25 C38.7406,534.0938 38.7719,533.9375 38.7719,533.4844 L38.7719,531.5625 C38.7719,531.4063 38.7719,531.3594 38.7563,531.2031 C38.6938,530.7344 38.3813,530.4219 37.9281,530.4219 C37.6781,530.4219 37.4125,530.5625 37.2406,530.7813 C37.1313,530.9531 37.1,531.1094 37.1,531.5625 L37.1,531.6875 L35.6469,531.6875 L35.6469,529.2813 L39.6313,529.2813 L39.6313,530.1406 C39.6313,530.5469 39.6625,530.7188 39.7406,530.875 C39.9125,531.125 40.1938,531.2813 40.475,531.2813 C40.7406,531.2813 41.0063,531.1406 41.1781,530.9219 C41.2875,530.75 41.3188,530.6094 41.3188,530.1406 L41.3188,527.5938 L33.6938,527.5938 C33.2563,527.5938 33.1313,527.6094 32.975,527.7031 C32.725,527.8594 32.5688,528.1563 32.5688,528.4375 C32.5688,528.7188 32.7094,528.9688 32.9281,529.1406 C33.0844,529.25 33.2719,529.2813 33.6938,529.2813 L33.9438,529.2813 L33.9438,535.7969 L33.6938,535.7969 C33.2875,535.7969 33.1313,535.8125 32.975,535.9219 C32.725,536.0938 32.5688,536.3594 32.5688,536.6563 C32.5688,536.9219 32.7094,537.1719 32.9281,537.3281 C33.0688,537.4531 33.3031,537.5 33.6938,537.5 L41.6938,537.5 L41.6938,534.9219 C41.6938,534.4844 41.6625,534.3438 41.5844,534.1875 C41.4125,533.9375 41.1313,533.7813 40.85,533.7813 C40.5844,533.7813 40.3188,533.8906 40.1469,534.1406 C40.0375,534.2969 40.0063,534.4375 40.0063,534.9219 L40.0063,535.7969 L35.6469,535.7969 L35.6469,533.375 Z " fill="#000000"/><text fill="#000000" font-family="sans-serif" font-size="14" lengthAdjust="spacing" textLength="31" x="54.15" y="537.3467">User</text><line style="stroke:#181818;stroke-width:0.5;" x1="8" x2="102" y1="548.5" y2="548.5"/><ellipse cx="18" cy="562.1484" fill="#000000" rx="3" ry="3" style="stroke:#000000;stroke-width:1.0;"/><text fill="#000000" font-family="sans-serif" font-size="14" lengthAdjust="spacing" textLength="20" x="27" y="565.4951">_id</text><ellipse cx="18" cy="578.4453" fill="#000000" rx="3" ry="3" style="stroke:#000000;stroke-width:1.0;"/><text fill="#000000" font-family="sans-serif" font-size="14" lengthAdjust="spacing" textLength="70" x="27" y="581.792">username</text><ellipse cx="18" cy="594.7422" fill="#000000" rx="3" ry="3" style="stroke:#000000;stroke-width:1.0;"/><text fill="#000000" font-family="sans-serif" font-size="14" lengthAdjust="spacing" textLength="67" x="27" y="598.0889">password</text><ellipse cx="18" cy="611.0391" fill="#000000" rx="3" ry="3" style="stroke:#000000;stroke-width:1.0;"/><text fill="#000000" font-family="sans-serif" font-size="14" lengthAdjust="spacing" textLength="35" x="27" y="614.3857">roles</text><line style="stroke:#181818;stroke-width:0.5;" x1="8" x2="102" y1="621.6875" y2="621.6875"/></g><!--class Metal--><g id="elem_Metal"><rect codeLine="8" fill="#F1F1F1" height="243.5625" id="Metal" rx="2.5" ry="2.5" style="stroke:#181818;stroke-width:0.5;" width="118" x="138" y="451"/><ellipse cx="173.7" cy="467" fill="#ADD1B2" rx="11" ry="11" style="stroke:#181818;stroke-width:1.0;"/><path d="M172.4969,467.875 L173.95,467.875 L173.95,467.9844 C173.95,468.3906 173.9813,468.5469 174.0594,468.7031 C174.2156,468.9531 174.4969,469.1094 174.7938,469.1094 C175.0438,469.1094 175.3094,468.9688 175.4656,468.75 C175.5906,468.5938 175.6219,468.4375 175.6219,467.9844 L175.6219,466.0625 C175.6219,465.9063 175.6219,465.8594 175.6063,465.7031 C175.5438,465.2344 175.2313,464.9219 174.7781,464.9219 C174.5281,464.9219 174.2625,465.0625 174.0906,465.2813 C173.9813,465.4531 173.95,465.6094 173.95,466.0625 L173.95,466.1875 L172.4969,466.1875 L172.4969,463.7813 L176.4813,463.7813 L176.4813,464.6406 C176.4813,465.0469 176.5125,465.2188 176.5906,465.375 C176.7625,465.625 177.0438,465.7813 177.325,465.7813 C177.5906,465.7813 177.8563,465.6406 178.0281,465.4219 C178.1375,465.25 178.1688,465.1094 178.1688,464.6406 L178.1688,462.0938 L170.5438,462.0938 C170.1063,462.0938 169.9813,462.1094 169.825,462.2031 C169.575,462.3594 169.4188,462.6563 169.4188,462.9375 C169.4188,463.2188 169.5594,463.4688 169.7781,463.6406 C169.9344,463.75 170.1219,463.7813 170.5438,463.7813 L170.7938,463.7813 L170.7938,470.2969 L170.5438,470.2969 C170.1375,470.2969 169.9813,470.3125 169.825,470.4219 C169.575,470.5938 169.4188,470.8594 169.4188,471.1563 C169.4188,471.4219 169.5594,471.6719 169.7781,471.8281 C169.9188,471.9531 170.1531,472 170.5438,472 L178.5438,472 L178.5438,469.4219 C178.5438,468.9844 178.5125,468.8438 178.4344,468.6875 C178.2625,468.4375 177.9813,468.2813 177.7,468.2813 C177.4344,468.2813 177.1688,468.3906 176.9969,468.6406 C176.8875,468.7969 176.8563,468.9375 176.8563,469.4219 L176.8563,470.2969 L172.4969,470.2969 L172.4969,467.875 Z " fill="#000000"/><text fill="#000000" font-family="sans-serif" font-size="14" lengthAdjust="spacing" textLength="40" x="192.3" y="471.8467">Metal</text><line style="stroke:#181818;stroke-width:0.5;" x1="139" x2="255" y1="483" y2="483"/><ellipse cx="149" cy="496.6484" fill="#000000" rx="3" ry="3" style="stroke:#000000;stroke-width:1.0;"/><text fill="#000000" font-family="sans-serif" font-size="14" lengthAdjust="spacing" textLength="20" x="158" y="499.9951">_id</text><ellipse cx="149" cy="512.9453" fill="#000000" rx="3" ry="3" style="stroke:#000000;stroke-width:1.0;"/><text fill="#000000" font-family="sans-serif" font-size="14" lengthAdjust="spacing" textLength="43" x="158" y="516.292">userId</text><ellipse cx="149" cy="529.2422" fill="#000000" rx="3" ry="3" style="stroke:#000000;stroke-width:1.0;"/><text fill="#000000" font-family="sans-serif" font-size="14" lengthAdjust="spacing" textLength="34" x="158" y="532.5889">type</text><ellipse cx="149" cy="545.5391" fill="#000000" rx="3" ry="3" style="stroke:#000000;stroke-width:1.0;"/><text fill="#000000" font-family="sans-serif" font-size="14" lengthAdjust="spacing" textLength="43" x="158" y="548.8857">scope</text><ellipse cx="149" cy="561.8359" fill="#000000" rx="3" ry="3" style="stroke:#000000;stroke-width:1.0;"/><text fill="#000000" font-family="sans-serif" font-size="14" lengthAdjust="spacing" textLength="83" x="158" y="565.1826">createTime</text><ellipse cx="149" cy="578.1328" fill="#000000" rx="3" ry="3" style="stroke:#000000;stroke-width:1.0;"/><text fill="#000000" font-family="sans-serif" font-size="14" lengthAdjust="spacing" textLength="28" x="158" y="581.4795">pkg</text><ellipse cx="149" cy="594.4297" fill="#000000" rx="3" ry="3" style="stroke:#000000;stroke-width:1.0;"/><text fill="#000000" font-family="sans-serif" font-size="14" lengthAdjust="spacing" textLength="34" x="158" y="597.7764">class</text><ellipse cx="149" cy="610.7266" fill="#000000" rx="3" ry="3" style="stroke:#000000;stroke-width:1.0;"/><text fill="#000000" font-family="sans-serif" font-size="14" lengthAdjust="spacing" textLength="92" x="158" y="614.0732">formSchema</text><ellipse cx="149" cy="627.0234" fill="#000000" rx="3" ry="3" style="stroke:#000000;stroke-width:1.0;"/><text fill="#000000" font-family="sans-serif" font-size="14" lengthAdjust="spacing" textLength="69" x="158" y="630.3701">uiSchema</text><ellipse cx="149" cy="643.3203" fill="#000000" rx="3" ry="3" style="stroke:#000000;stroke-width:1.0;"/><text fill="#000000" font-family="sans-serif" font-size="14" lengthAdjust="spacing" textLength="55" x="158" y="646.667">groupId</text><ellipse cx="149" cy="659.6172" fill="#000000" rx="3" ry="3" style="stroke:#000000;stroke-width:1.0;"/><text fill="#000000" font-family="sans-serif" font-size="14" lengthAdjust="spacing" textLength="67" x="158" y="662.9639">artifactId</text><ellipse cx="149" cy="675.9141" fill="#000000" rx="3" ry="3" style="stroke:#000000;stroke-width:1.0;"/><text fill="#000000" font-family="sans-serif" font-size="14" lengthAdjust="spacing" textLength="52" x="158" y="679.2607">version</text><line style="stroke:#181818;stroke-width:0.5;" x1="139" x2="255" y1="686.5625" y2="686.5625"/></g><!--class Project--><g id="elem_Project"><rect codeLine="23" fill="#F1F1F1" height="145.7813" id="Project" rx="2.5" ry="2.5" style="stroke:#181818;stroke-width:0.5;" width="109" x="198.5" y="755"/><ellipse cx="224.75" cy="771" fill="#ADD1B2" rx="11" ry="11" style="stroke:#181818;stroke-width:1.0;"/><path d="M223.5469,771.875 L225,771.875 L225,771.9844 C225,772.3906 225.0313,772.5469 225.1094,772.7031 C225.2656,772.9531 225.5469,773.1094 225.8438,773.1094 C226.0938,773.1094 226.3594,772.9688 226.5156,772.75 C226.6406,772.5938 226.6719,772.4375 226.6719,771.9844 L226.6719,770.0625 C226.6719,769.9063 226.6719,769.8594 226.6563,769.7031 C226.5938,769.2344 226.2813,768.9219 225.8281,768.9219 C225.5781,768.9219 225.3125,769.0625 225.1406,769.2813 C225.0313,769.4531 225,769.6094 225,770.0625 L225,770.1875 L223.5469,770.1875 L223.5469,767.7813 L227.5313,767.7813 L227.5313,768.6406 C227.5313,769.0469 227.5625,769.2188 227.6406,769.375 C227.8125,769.625 228.0938,769.7813 228.375,769.7813 C228.6406,769.7813 228.9063,769.6406 229.0781,769.4219 C229.1875,769.25 229.2188,769.1094 229.2188,768.6406 L229.2188,766.0938 L221.5938,766.0938 C221.1563,766.0938 221.0313,766.1094 220.875,766.2031 C220.625,766.3594 220.4688,766.6563 220.4688,766.9375 C220.4688,767.2188 220.6094,767.4688 220.8281,767.6406 C220.9844,767.75 221.1719,767.7813 221.5938,767.7813 L221.8438,767.7813 L221.8438,774.2969 L221.5938,774.2969 C221.1875,774.2969 221.0313,774.3125 220.875,774.4219 C220.625,774.5938 220.4688,774.8594 220.4688,775.1563 C220.4688,775.4219 220.6094,775.6719 220.8281,775.8281 C220.9688,775.9531 221.2031,776 221.5938,776 L229.5938,776 L229.5938,773.4219 C229.5938,772.9844 229.5625,772.8438 229.4844,772.6875 C229.3125,772.4375 229.0313,772.2813 228.75,772.2813 C228.4844,772.2813 228.2188,772.3906 228.0469,772.6406 C227.9375,772.7969 227.9063,772.9375 227.9063,773.4219 L227.9063,774.2969 L223.5469,774.2969 L223.5469,771.875 Z " fill="#000000"/><text fill="#000000" font-family="sans-serif" font-size="14" lengthAdjust="spacing" textLength="52" x="241.25" y="775.8467">Project</text><line style="stroke:#181818;stroke-width:0.5;" x1="199.5" x2="306.5" y1="787" y2="787"/><ellipse cx="209.5" cy="800.6484" fill="#000000" rx="3" ry="3" style="stroke:#000000;stroke-width:1.0;"/><text fill="#000000" font-family="sans-serif" font-size="14" lengthAdjust="spacing" textLength="20" x="218.5" y="803.9951">_id</text><ellipse cx="209.5" cy="816.9453" fill="#000000" rx="3" ry="3" style="stroke:#000000;stroke-width:1.0;"/><text fill="#000000" font-family="sans-serif" font-size="14" lengthAdjust="spacing" textLength="43" x="218.5" y="820.292">userId</text><ellipse cx="209.5" cy="833.2422" fill="#000000" rx="3" ry="3" style="stroke:#000000;stroke-width:1.0;"/><text fill="#000000" font-family="sans-serif" font-size="14" lengthAdjust="spacing" textLength="40" x="218.5" y="836.5889">name</text><ellipse cx="209.5" cy="849.5391" fill="#000000" rx="3" ry="3" style="stroke:#000000;stroke-width:1.0;"/><text fill="#000000" font-family="sans-serif" font-size="14" lengthAdjust="spacing" textLength="83" x="218.5" y="852.8857">createTime</text><ellipse cx="209.5" cy="865.8359" fill="#000000" rx="3" ry="3" style="stroke:#000000;stroke-width:1.0;"/><text fill="#000000" font-family="sans-serif" font-size="14" lengthAdjust="spacing" textLength="49" x="218.5" y="869.1826">deploy</text><ellipse cx="209.5" cy="882.1328" fill="#000000" rx="3" ry="3" style="stroke:#000000;stroke-width:1.0;"/><text fill="#000000" font-family="sans-serif" font-size="14" lengthAdjust="spacing" textLength="34" x="218.5" y="885.4795">spec</text><line style="stroke:#181818;stroke-width:0.5;" x1="199.5" x2="306.5" y1="892.7813" y2="892.7813"/></g><!--class Deploy--><g id="elem_Deploy"><rect codeLine="32" fill="#F1F1F1" height="129.4844" id="Deploy" rx="2.5" ry="2.5" style="stroke:#181818;stroke-width:0.5;" width="90" x="362" y="508.5"/><ellipse cx="380.15" cy="524.5" fill="#ADD1B2" rx="11" ry="11" style="stroke:#181818;stroke-width:1.0;"/><path d="M378.9469,525.375 L380.4,525.375 L380.4,525.4844 C380.4,525.8906 380.4313,526.0469 380.5094,526.2031 C380.6656,526.4531 380.9469,526.6094 381.2438,526.6094 C381.4938,526.6094 381.7594,526.4688 381.9156,526.25 C382.0406,526.0938 382.0719,525.9375 382.0719,525.4844 L382.0719,523.5625 C382.0719,523.4063 382.0719,523.3594 382.0563,523.2031 C381.9938,522.7344 381.6813,522.4219 381.2281,522.4219 C380.9781,522.4219 380.7125,522.5625 380.5406,522.7813 C380.4313,522.9531 380.4,523.1094 380.4,523.5625 L380.4,523.6875 L378.9469,523.6875 L378.9469,521.2813 L382.9313,521.2813 L382.9313,522.1406 C382.9313,522.5469 382.9625,522.7188 383.0406,522.875 C383.2125,523.125 383.4938,523.2813 383.775,523.2813 C384.0406,523.2813 384.3063,523.1406 384.4781,522.9219 C384.5875,522.75 384.6188,522.6094 384.6188,522.1406 L384.6188,519.5938 L376.9938,519.5938 C376.5563,519.5938 376.4313,519.6094 376.275,519.7031 C376.025,519.8594 375.8688,520.1563 375.8688,520.4375 C375.8688,520.7188 376.0094,520.9688 376.2281,521.1406 C376.3844,521.25 376.5719,521.2813 376.9938,521.2813 L377.2438,521.2813 L377.2438,527.7969 L376.9938,527.7969 C376.5875,527.7969 376.4313,527.8125 376.275,527.9219 C376.025,528.0938 375.8688,528.3594 375.8688,528.6563 C375.8688,528.9219 376.0094,529.1719 376.2281,529.3281 C376.3688,529.4531 376.6031,529.5 376.9938,529.5 L384.9938,529.5 L384.9938,526.9219 C384.9938,526.4844 384.9625,526.3438 384.8844,526.1875 C384.7125,525.9375 384.4313,525.7813 384.15,525.7813 C383.8844,525.7813 383.6188,525.8906 383.4469,526.1406 C383.3375,526.2969 383.3063,526.4375 383.3063,526.9219 L383.3063,527.7969 L378.9469,527.7969 L378.9469,525.375 Z " fill="#000000"/><text fill="#000000" font-family="sans-serif" font-size="14" lengthAdjust="spacing" textLength="51" x="394.85" y="529.3467">Deploy</text><line style="stroke:#181818;stroke-width:0.5;" x1="363" x2="451" y1="540.5" y2="540.5"/><ellipse cx="373" cy="554.1484" fill="#000000" rx="3" ry="3" style="stroke:#000000;stroke-width:1.0;"/><text fill="#000000" font-family="sans-serif" font-size="14" lengthAdjust="spacing" textLength="13" x="382" y="557.4951">id</text><ellipse cx="373" cy="570.4453" fill="#000000" rx="3" ry="3" style="stroke:#000000;stroke-width:1.0;"/><text fill="#000000" font-family="sans-serif" font-size="14" lengthAdjust="spacing" textLength="45" x="382" y="573.792">epoch</text><ellipse cx="373" cy="586.7422" fill="#000000" rx="3" ry="3" style="stroke:#000000;stroke-width:1.0;"/><text fill="#000000" font-family="sans-serif" font-size="14" lengthAdjust="spacing" textLength="35" x="382" y="590.0889">pkgs</text><ellipse cx="373" cy="603.0391" fill="#000000" rx="3" ry="3" style="stroke:#000000;stroke-width:1.0;"/><text fill="#000000" font-family="sans-serif" font-size="14" lengthAdjust="spacing" textLength="64" x="382" y="606.3857">platform</text><ellipse cx="373" cy="619.3359" fill="#000000" rx="3" ry="3" style="stroke:#000000;stroke-width:1.0;"/><text fill="#000000" font-family="sans-serif" font-size="14" lengthAdjust="spacing" textLength="62" x="382" y="622.6826">backend</text><line style="stroke:#181818;stroke-width:0.5;" x1="363" x2="451" y1="629.9844" y2="629.9844"/></g><!--class Backend--><g id="elem_Backend"><rect codeLine="40" fill="#F1F1F1" height="96.8906" id="Backend" rx="2.5" ry="2.5" style="stroke:#181818;stroke-width:0.5;" width="94" x="362" y="294"/><ellipse cx="377" cy="310" fill="#ADD1B2" rx="11" ry="11" style="stroke:#181818;stroke-width:1.0;"/><path d="M375.7969,310.875 L377.25,310.875 L377.25,310.9844 C377.25,311.3906 377.2813,311.5469 377.3594,311.7031 C377.5156,311.9531 377.7969,312.1094 378.0938,312.1094 C378.3438,312.1094 378.6094,311.9688 378.7656,311.75 C378.8906,311.5938 378.9219,311.4375 378.9219,310.9844 L378.9219,309.0625 C378.9219,308.9063 378.9219,308.8594 378.9063,308.7031 C378.8438,308.2344 378.5313,307.9219 378.0781,307.9219 C377.8281,307.9219 377.5625,308.0625 377.3906,308.2813 C377.2813,308.4531 377.25,308.6094 377.25,309.0625 L377.25,309.1875 L375.7969,309.1875 L375.7969,306.7813 L379.7813,306.7813 L379.7813,307.6406 C379.7813,308.0469 379.8125,308.2188 379.8906,308.375 C380.0625,308.625 380.3438,308.7813 380.625,308.7813 C380.8906,308.7813 381.1563,308.6406 381.3281,308.4219 C381.4375,308.25 381.4688,308.1094 381.4688,307.6406 L381.4688,305.0938 L373.8438,305.0938 C373.4063,305.0938 373.2813,305.1094 373.125,305.2031 C372.875,305.3594 372.7188,305.6563 372.7188,305.9375 C372.7188,306.2188 372.8594,306.4688 373.0781,306.6406 C373.2344,306.75 373.4219,306.7813 373.8438,306.7813 L374.0938,306.7813 L374.0938,313.2969 L373.8438,313.2969 C373.4375,313.2969 373.2813,313.3125 373.125,313.4219 C372.875,313.5938 372.7188,313.8594 372.7188,314.1563 C372.7188,314.4219 372.8594,314.6719 373.0781,314.8281 C373.2188,314.9531 373.4531,315 373.8438,315 L381.8438,315 L381.8438,312.4219 C381.8438,311.9844 381.8125,311.8438 381.7344,311.6875 C381.5625,311.4375 381.2813,311.2813 381,311.2813 C380.7344,311.2813 380.4688,311.3906 380.2969,311.6406 C380.1875,311.7969 380.1563,311.9375 380.1563,312.4219 L380.1563,313.2969 L375.7969,313.2969 L375.7969,310.875 Z " fill="#000000"/><text fill="#000000" font-family="sans-serif" font-size="14" lengthAdjust="spacing" textLength="62" x="391" y="314.8467">Backend</text><line style="stroke:#181818;stroke-width:0.5;" x1="363" x2="455" y1="326" y2="326"/><ellipse cx="373" cy="339.6484" fill="#000000" rx="3" ry="3" style="stroke:#000000;stroke-width:1.0;"/><text fill="#000000" font-family="sans-serif" font-size="14" lengthAdjust="spacing" textLength="13" x="382" y="342.9951">id</text><ellipse cx="373" cy="355.9453" fill="#000000" rx="3" ry="3" style="stroke:#000000;stroke-width:1.0;"/><text fill="#000000" font-family="sans-serif" font-size="14" lengthAdjust="spacing" textLength="30" x="382" y="359.292">args</text><ellipse cx="373" cy="372.2422" fill="#000000" rx="3" ry="3" style="stroke:#000000;stroke-width:1.0;"/><text fill="#000000" font-family="sans-serif" font-size="14" lengthAdjust="spacing" textLength="44" x="382" y="375.5889">status</text><line style="stroke:#181818;stroke-width:0.5;" x1="363" x2="455" y1="382.8906" y2="382.8906"/></g><!--class BackendState--><g id="elem_BackendState"><rect codeLine="46" fill="#F1F1F1" height="129.4844" id="BackendState" rx="2.5" ry="2.5" style="stroke:#181818;stroke-width:0.5;" width="134" x="487" y="508.5"/><ellipse cx="502" cy="524.5" fill="#ADD1B2" rx="11" ry="11" style="stroke:#181818;stroke-width:1.0;"/><path d="M500.7969,525.375 L502.25,525.375 L502.25,525.4844 C502.25,525.8906 502.2813,526.0469 502.3594,526.2031 C502.5156,526.4531 502.7969,526.6094 503.0938,526.6094 C503.3438,526.6094 503.6094,526.4688 503.7656,526.25 C503.8906,526.0938 503.9219,525.9375 503.9219,525.4844 L503.9219,523.5625 C503.9219,523.4063 503.9219,523.3594 503.9063,523.2031 C503.8438,522.7344 503.5313,522.4219 503.0781,522.4219 C502.8281,522.4219 502.5625,522.5625 502.3906,522.7813 C502.2813,522.9531 502.25,523.1094 502.25,523.5625 L502.25,523.6875 L500.7969,523.6875 L500.7969,521.2813 L504.7813,521.2813 L504.7813,522.1406 C504.7813,522.5469 504.8125,522.7188 504.8906,522.875 C505.0625,523.125 505.3438,523.2813 505.625,523.2813 C505.8906,523.2813 506.1563,523.1406 506.3281,522.9219 C506.4375,522.75 506.4688,522.6094 506.4688,522.1406 L506.4688,519.5938 L498.8438,519.5938 C498.4063,519.5938 498.2813,519.6094 498.125,519.7031 C497.875,519.8594 497.7188,520.1563 497.7188,520.4375 C497.7188,520.7188 497.8594,520.9688 498.0781,521.1406 C498.2344,521.25 498.4219,521.2813 498.8438,521.2813 L499.0938,521.2813 L499.0938,527.7969 L498.8438,527.7969 C498.4375,527.7969 498.2813,527.8125 498.125,527.9219 C497.875,528.0938 497.7188,528.3594 497.7188,528.6563 C497.7188,528.9219 497.8594,529.1719 498.0781,529.3281 C498.2188,529.4531 498.4531,529.5 498.8438,529.5 L506.8438,529.5 L506.8438,526.9219 C506.8438,526.4844 506.8125,526.3438 506.7344,526.1875 C506.5625,525.9375 506.2813,525.7813 506,525.7813 C505.7344,525.7813 505.4688,525.8906 505.2969,526.1406 C505.1875,526.2969 505.1563,526.4375 505.1563,526.9219 L505.1563,527.7969 L500.7969,527.7969 L500.7969,525.375 Z " fill="#000000"/><text fill="#000000" font-family="sans-serif" font-size="14" lengthAdjust="spacing" textLength="102" x="516" y="529.3467">BackendState</text><line style="stroke:#181818;stroke-width:0.5;" x1="488" x2="620" y1="540.5" y2="540.5"/><ellipse cx="498" cy="554.1484" fill="#000000" rx="3" ry="3" style="stroke:#000000;stroke-width:1.0;"/><text fill="#000000" font-family="sans-serif" font-size="14" lengthAdjust="spacing" textLength="13" x="507" y="557.4951">id</text><ellipse cx="498" cy="570.4453" fill="#000000" rx="3" ry="3" style="stroke:#000000;stroke-width:1.0;"/><text fill="#000000" font-family="sans-serif" font-size="14" lengthAdjust="spacing" textLength="53" x="507" y="573.792">current</text><ellipse cx="498" cy="586.7422" fill="#000000" rx="3" ry="3" style="stroke:#000000;stroke-width:1.0;"/><text fill="#000000" font-family="sans-serif" font-size="14" lengthAdjust="spacing" textLength="83" x="507" y="590.0889">createTime</text><ellipse cx="498" cy="603.0391" fill="#000000" rx="3" ry="3" style="stroke:#000000;stroke-width:1.0;"/><text fill="#000000" font-family="sans-serif" font-size="14" lengthAdjust="spacing" textLength="54" x="507" y="606.3857">upTime</text><ellipse cx="498" cy="619.3359" fill="#000000" rx="3" ry="3" style="stroke:#000000;stroke-width:1.0;"/><text fill="#000000" font-family="sans-serif" font-size="14" lengthAdjust="spacing" textLength="74" x="507" y="622.6826">downTime</text><line style="stroke:#181818;stroke-width:0.5;" x1="488" x2="620" y1="629.9844" y2="629.9844"/></g><!--class Exec--><g id="elem_Exec"><rect codeLine="54" fill="#F1F1F1" height="227.2656" id="Exec" rx="2.5" ry="2.5" style="stroke:#181818;stroke-width:0.5;" width="135" x="291.5" y="7"/><ellipse cx="337.75" cy="23" fill="#ADD1B2" rx="11" ry="11" style="stroke:#181818;stroke-width:1.0;"/><path d="M336.5469,23.875 L338,23.875 L338,23.9844 C338,24.3906 338.0313,24.5469 338.1094,24.7031 C338.2656,24.9531 338.5469,25.1094 338.8438,25.1094 C339.0938,25.1094 339.3594,24.9688 339.5156,24.75 C339.6406,24.5938 339.6719,24.4375 339.6719,23.9844 L339.6719,22.0625 C339.6719,21.9063 339.6719,21.8594 339.6563,21.7031 C339.5938,21.2344 339.2813,20.9219 338.8281,20.9219 C338.5781,20.9219 338.3125,21.0625 338.1406,21.2813 C338.0313,21.4531 338,21.6094 338,22.0625 L338,22.1875 L336.5469,22.1875 L336.5469,19.7813 L340.5313,19.7813 L340.5313,20.6406 C340.5313,21.0469 340.5625,21.2188 340.6406,21.375 C340.8125,21.625 341.0938,21.7813 341.375,21.7813 C341.6406,21.7813 341.9063,21.6406 342.0781,21.4219 C342.1875,21.25 342.2188,21.1094 342.2188,20.6406 L342.2188,18.0938 L334.5938,18.0938 C334.1563,18.0938 334.0313,18.1094 333.875,18.2031 C333.625,18.3594 333.4688,18.6563 333.4688,18.9375 C333.4688,19.2188 333.6094,19.4688 333.8281,19.6406 C333.9844,19.75 334.1719,19.7813 334.5938,19.7813 L334.8438,19.7813 L334.8438,26.2969 L334.5938,26.2969 C334.1875,26.2969 334.0313,26.3125 333.875,26.4219 C333.625,26.5938 333.4688,26.8594 333.4688,27.1563 C333.4688,27.4219 333.6094,27.6719 333.8281,27.8281 C333.9688,27.9531 334.2031,28 334.5938,28 L342.5938,28 L342.5938,25.4219 C342.5938,24.9844 342.5625,24.8438 342.4844,24.6875 C342.3125,24.4375 342.0313,24.2813 341.75,24.2813 C341.4844,24.2813 341.2188,24.3906 341.0469,24.6406 C340.9375,24.7969 340.9063,24.9375 340.9063,25.4219 L340.9063,26.2969 L336.5469,26.2969 L336.5469,23.875 Z " fill="#000000"/><text fill="#000000" font-family="sans-serif" font-size="14" lengthAdjust="spacing" textLength="34" x="358.25" y="27.8467">Exec</text><line style="stroke:#181818;stroke-width:0.5;" x1="292.5" x2="425.5" y1="39" y2="39"/><ellipse cx="302.5" cy="52.6484" fill="#000000" rx="3" ry="3" style="stroke:#000000;stroke-width:1.0;"/><text fill="#000000" font-family="sans-serif" font-size="14" lengthAdjust="spacing" textLength="20" x="311.5" y="55.9951">_id</text><ellipse cx="302.5" cy="68.9453" fill="#000000" rx="3" ry="3" style="stroke:#000000;stroke-width:1.0;"/><text fill="#000000" font-family="sans-serif" font-size="14" lengthAdjust="spacing" textLength="43" x="311.5" y="72.292">userId</text><ellipse cx="302.5" cy="85.2422" fill="#000000" rx="3" ry="3" style="stroke:#000000;stroke-width:1.0;"/><text fill="#000000" font-family="sans-serif" font-size="14" lengthAdjust="spacing" textLength="83" x="311.5" y="88.5889">createTime</text><ellipse cx="302.5" cy="101.5391" fill="#000000" rx="3" ry="3" style="stroke:#000000;stroke-width:1.0;"/><text fill="#000000" font-family="sans-serif" font-size="14" lengthAdjust="spacing" textLength="86" x="311.5" y="104.8857">submitTime</text><ellipse cx="302.5" cy="117.8359" fill="#000000" rx="3" ry="3" style="stroke:#000000;stroke-width:1.0;"/><text fill="#000000" font-family="sans-serif" font-size="14" lengthAdjust="spacing" textLength="70" x="311.5" y="121.1826">beatTime</text><ellipse cx="302.5" cy="134.1328" fill="#000000" rx="3" ry="3" style="stroke:#000000;stroke-width:1.0;"/><text fill="#000000" font-family="sans-serif" font-size="14" lengthAdjust="spacing" textLength="75" x="311.5" y="137.4795">finishTime</text><ellipse cx="302.5" cy="150.4297" fill="#000000" rx="3" ry="3" style="stroke:#000000;stroke-width:1.0;"/><text fill="#000000" font-family="sans-serif" font-size="14" lengthAdjust="spacing" textLength="109" x="311.5" y="153.7764">terminateTime</text><ellipse cx="302.5" cy="166.7266" fill="#000000" rx="3" ry="3" style="stroke:#000000;stroke-width:1.0;"/><text fill="#000000" font-family="sans-serif" font-size="14" lengthAdjust="spacing" textLength="44" x="311.5" y="170.0732">status</text><ellipse cx="302.5" cy="183.0234" fill="#000000" rx="3" ry="3" style="stroke:#000000;stroke-width:1.0;"/><text fill="#000000" font-family="sans-serif" font-size="14" lengthAdjust="spacing" textLength="49" x="311.5" y="186.3701">deploy</text><ellipse cx="302.5" cy="199.3203" fill="#000000" rx="3" ry="3" style="stroke:#000000;stroke-width:1.0;"/><text fill="#000000" font-family="sans-serif" font-size="14" lengthAdjust="spacing" textLength="87" x="311.5" y="202.667">fromProject</text><ellipse cx="302.5" cy="215.6172" fill="#000000" rx="3" ry="3" style="stroke:#000000;stroke-width:1.0;"/><text fill="#000000" font-family="sans-serif" font-size="14" lengthAdjust="spacing" textLength="34" x="311.5" y="218.9639">spec</text><line style="stroke:#181818;stroke-width:0.5;" x1="292.5" x2="425.5" y1="226.2656" y2="226.2656"/></g><!--link Metal to Project--><g id="link_Metal_Project"><path codeLine="68" d="M225.654,703.453 C228.931,718.261 232.197,733.016 235.271,746.904 " fill="none" id="Metal-Project" style="stroke:#181818;stroke-width:1.0;"/><line style="stroke:#181818;stroke-width:1.0;" x1="225.5805" x2="217.9937" y1="703.124" y2="696.6094"/><line style="stroke:#181818;stroke-width:1.0;" x1="225.5805" x2="229.7103" y1="703.124" y2="694.0166"/><line style="stroke:#181818;stroke-width:1.0;" x1="225.5805" x2="223.852" y1="703.124" y2="695.313"/><ellipse cx="226.8768" cy="708.9823" fill="none" rx="4" ry="4" style="stroke:#181818;stroke-width:1.0;"/><line style="stroke:#181818;stroke-width:1.0;" x1="235.3295" x2="242.9163" y1="747.164" y2="753.6786"/><line style="stroke:#181818;stroke-width:1.0;" x1="235.3295" x2="231.1997" y1="747.164" y2="756.2714"/><line style="stroke:#181818;stroke-width:1.0;" x1="235.3295" x2="237.058" y1="747.164" y2="754.975"/><ellipse cx="234.0332" cy="741.3057" fill="none" rx="4" ry="4" style="stroke:#181818;stroke-width:1.0;"/></g><!--link User to Project--><g id="link_User_Project"><path codeLine="69" d="M84.3326,637.013 C94.5047,656.35 106.7221,677.206 120,695 C141.075,723.243 168.126,751.217 192.324,774.095 " fill="none" id="User-Project" style="stroke:#181818;stroke-width:1.0;"/><line style="stroke:#181818;stroke-width:1.0;" x1="78.8246" x2="85.9279" y1="635.0777" y2="631.3976"/><line style="stroke:#181818;stroke-width:1.0;" x1="80.2046" x2="87.3079" y1="637.7414" y2="634.0614"/><line style="stroke:#181818;stroke-width:1.0;" x1="84.2163" x2="80.5362" y1="636.7893" y2="629.686"/><line style="stroke:#181818;stroke-width:1.0;" x1="192.5722" x2="202.5123" y1="774.327" y2="775.4204"/><line style="stroke:#181818;stroke-width:1.0;" x1="192.5722" x2="194.3057" y1="774.327" y2="784.1756"/><line style="stroke:#181818;stroke-width:1.0;" x1="192.5722" x2="198.409" y1="774.327" y2="779.798"/><line style="stroke:#181818;stroke-width:1.0;" x1="193.8485" x2="188.3775" y1="770.0408" y2="775.8776"/></g><!--link Deploy to Project--><g id="link_Deploy_Project"><path codeLine="70" d="M365.827,643.71 C355.802,660.54 345.067,678.444 335,695 C324.359,712.5 312.818,731.23 301.846,748.92 " fill="none" id="Deploy-Project" style="stroke:#181818;stroke-width:1.0;"/><line style="stroke:#181818;stroke-width:1.0;" x1="364.0029" x2="370.8772" y1="638.9542" y2="643.0461"/><line style="stroke:#181818;stroke-width:1.0;" x1="362.4684" x2="369.3427" y1="641.5321" y2="645.624"/><line style="stroke:#181818;stroke-width:1.0;" x1="365.3941" x2="369.486" y1="644.4373" y2="637.563"/><line style="stroke:#181818;stroke-width:1.0;" x1="303.657" x2="296.86" y1="753.587" y2="749.368"/><line style="stroke:#181818;stroke-width:1.0;" x1="305.2391" x2="298.4421" y1="751.0381" y2="746.8191"/><line style="stroke:#181818;stroke-width:1.0;" x1="302.368" x2="298.149" y1="748.0789" y2="754.876"/></g><!--link Backend to Deploy--><g id="link_Backend_Deploy"><path codeLine="71" d="M408.512,399.305 C408.245,429.704 407.913,467.657 407.628,500.236 " fill="none" id="Backend-Deploy" style="stroke:#181818;stroke-width:1.0;"/><line style="stroke:#181818;stroke-width:1.0;" x1="408.513" x2="402.5832" y1="399.1227" y2="391.0705"/><line style="stroke:#181818;stroke-width:1.0;" x1="408.513" x2="414.5828" y1="399.1227" y2="391.1755"/><line style="stroke:#181818;stroke-width:1.0;" x1="408.513" x2="408.583" y1="399.1227" y2="391.123"/><ellipse cx="408.4605" cy="405.1225" fill="none" rx="4" ry="4" style="stroke:#181818;stroke-width:1.0;"/><line style="stroke:#181818;stroke-width:1.0;" x1="411.5918" x2="403.5922" y1="504.4302" y2="504.3602"/><line style="stroke:#181818;stroke-width:1.0;" x1="411.6181" x2="403.6184" y1="501.4303" y2="501.3603"/><line style="stroke:#181818;stroke-width:1.0;" x1="407.627" x2="407.557" y1="500.3953" y2="508.395"/></g><!--link Exec to Project--><g id="link_Exec_Project"><path codeLine="72" d="M340.928,242.381 C323.562,358.45 296.557,538.717 273,695 C270.491,711.643 267.797,729.466 265.223,746.459 " fill="none" id="Exec-Project" style="stroke:#181818;stroke-width:1.0;"/><line style="stroke:#181818;stroke-width:1.0;" x1="340.9769" x2="336.2271" y1="242.0479" y2="233.2479"/><line style="stroke:#181818;stroke-width:1.0;" x1="340.9769" x2="348.0949" y1="242.0479" y2="235.0241"/><line style="stroke:#181818;stroke-width:1.0;" x1="340.9769" x2="342.161" y1="242.0479" y2="234.136"/><ellipse cx="340.0888" cy="247.9818" fill="none" rx="4" ry="4" style="stroke:#181818;stroke-width:1.0;"/><line style="stroke:#181818;stroke-width:1.0;" x1="268.5251" x2="260.6154" y1="751.3704" y2="750.1719"/><line style="stroke:#181818;stroke-width:1.0;" x1="268.9746" x2="261.0649" y1="748.4043" y2="747.2057"/><line style="stroke:#181818;stroke-width:1.0;" x1="265.1695" x2="263.971" y1="746.8163" y2="754.726"/></g><!--reverse link Backend to BackendState--><g id="link_Backend_BackendState"><path codeLine="73" d="M443.09,397.221 C464.209,430.503 491.443,473.419 513.638,508.395 " fill="none" id="Backend-backto-BackendState" style="stroke:#181818;stroke-width:1.0;"/><line style="stroke:#181818;stroke-width:1.0;" x1="437.985" x2="444.7404" y1="396.6434" y2="392.358"/><line style="stroke:#181818;stroke-width:1.0;" x1="439.592" x2="446.3474" y1="399.1767" y2="394.8913"/><line style="stroke:#181818;stroke-width:1.0;" x1="443.5054" x2="439.22" y1="397.8784" y2="391.123"/></g><!--link Exec to Backend--><g id="link_Exec_Backend"><path codeLine="74" d="M386.153,240.972 C389.768,256.879 393.323,272.52 396.511,286.55 " fill="none" id="Exec-Backend" style="stroke:#181818;stroke-width:1.0;"/><line style="stroke:#181818;stroke-width:1.0;" x1="381.572" x2="389.3731" y1="238.8651" y2="237.092"/><line style="stroke:#181818;stroke-width:1.0;" x1="382.237" x2="390.038" y1="241.7905" y2="240.0173"/><line style="stroke:#181818;stroke-width:1.0;" x1="386.3591" x2="384.586" y1="241.879" y2="234.078"/><line style="stroke:#181818;stroke-width:1.0;" x1="401.158" x2="393.3569" y1="288.9469" y2="290.72"/><line style="stroke:#181818;stroke-width:1.0;" x1="400.493" x2="392.692" y1="286.0215" y2="287.7947"/><line style="stroke:#181818;stroke-width:1.0;" x1="396.3709" x2="398.144" y1="285.933" y2="293.734"/></g><!--SRC=[TL9DJyCm33sJNz4pKly4WWC79AJ16QMPkuKrSUIuZ6dTVoUDiwuTswdlFTkl_WXujdoeFYDGTLHLzLXzsNN-zadosa4cGSUuHv88OGTHdPG2ANu3rjsDwbU1V0YW7XA81Wio19hXmpgXORSHkKk_oQX5SYkp1QV5pHOonZQ4VKZU8zR4jjM62_q1YXRzhBTtmcymVB-xQSHPJoDTG-Zma64CO6QMppbI78iX13HRsTHk4mLqciSnCccqsO5VproUH5dQQ2h5aJNtyN_wAkcmh34zKKgwDKCVBkFWtcToiNpv1ND_BrTMiM-SvOasAJYHrdeRjnDb86VzebYckLfhI-ZAUHPhbkTqmhh6u_b-AZ_GOQZhuQALGsHrcDJpOaU394kIoiCMwJfpD9ZlLvABRGdy0G00]--></g></svg>