<?xml version="1.0" encoding="UTF-8" standalone="no"?><svg xmlns="http://www.w3.org/2000/svg" xmlns:xlink="http://www.w3.org/1999/xlink" contentStyleType="text/css" height="606px" preserveAspectRatio="none" style="width:1111px;height:606px;background:#FFFFFF;" version="1.1" viewBox="0 0 1111 606" width="1111px" zoomAndPan="magnify"><defs/><g><!--MD5=[997dafb6c1401214a059366661d97ba7]
cluster metal-core--><g id="cluster_metal-core"><path d="M8.5,6 L94.5,6 A3.75,3.75 0 0 1 97,8.5 L104,28.2969 L1101.5,28.2969 A2.5,2.5 0 0 1 1104,30.7969 L1104,350.5 A2.5,2.5 0 0 1 1101.5,353 L8.5,353 A2.5,2.5 0 0 1 6,350.5 L6,8.5 A2.5,2.5 0 0 1 8.5,6 " fill="none" style="stroke:#000000;stroke-width:1.5;"/><line style="stroke:#000000;stroke-width:1.5;" x1="6" x2="104" y1="28.2969" y2="28.2969"/><text fill="#000000" font-family="sans-serif" font-size="14" font-weight="bold" lengthAdjust="spacing" textLength="85" x="10" y="20.9951">metal-core</text></g><!--MD5=[1287f2f42f7f97b6583786604f85c2cb]
cluster metal-on-spark--><g id="cluster_metal-on-spark"><path d="M143.5,377 L263.5,377 A3.75,3.75 0 0 1 266,379.5 L273,399.2969 L784.5,399.2969 A2.5,2.5 0 0 1 787,401.7969 L787,473.5 A2.5,2.5 0 0 1 784.5,476 L143.5,476 A2.5,2.5 0 0 1 141,473.5 L141,379.5 A2.5,2.5 0 0 1 143.5,377 " fill="none" style="stroke:#000000;stroke-width:1.5;"/><line style="stroke:#000000;stroke-width:1.5;" x1="141" x2="273" y1="399.2969" y2="399.2969"/><text fill="#000000" font-family="sans-serif" font-size="14" font-weight="bold" lengthAdjust="spacing" textLength="119" x="145" y="391.9951">metal-on-spark</text></g><!--MD5=[99a70f419768716c652dc85057eaf80e]
cluster metal-on-spark-extensions--><g id="cluster_metal-on-spark-extensions"><path d="M160.5,500 L373.5,500 A3.75,3.75 0 0 1 376,502.5 L383,522.2969 L784.5,522.2969 A2.5,2.5 0 0 1 787,524.7969 L787,596.5 A2.5,2.5 0 0 1 784.5,599 L160.5,599 A2.5,2.5 0 0 1 158,596.5 L158,502.5 A2.5,2.5 0 0 1 160.5,500 " fill="none" style="stroke:#000000;stroke-width:1.5;"/><line style="stroke:#000000;stroke-width:1.5;" x1="158" x2="383" y1="522.2969" y2="522.2969"/><text fill="#000000" font-family="sans-serif" font-size="14" font-weight="bold" lengthAdjust="spacing" textLength="212" x="162" y="514.9951">metal-on-spark-extensions</text></g><!--MD5=[a86f63db6466ae0b74ec71f49aad4a4e]
class Metal--><g id="elem_Metal"><rect codeLine="11" fill="#F1F1F1" height="149.3906" id="Metal" rx="2.5" ry="2.5" style="stroke:#181818;stroke-width:0.5;" width="540" x="205" y="41"/><ellipse cx="452.25" cy="75.1016" fill="#A9DCDF" rx="11" ry="11" style="stroke:#181818;stroke-width:1.0;"/><path d="M452.3594,70.4453 L451.2031,75.5234 L453.5313,75.5234 L452.3594,70.4453 Z M450.875,68.2109 L453.8594,68.2109 L457.2188,80.6016 L454.7656,80.6016 L454,77.5391 L450.7188,77.5391 L449.9688,80.6016 L447.5313,80.6016 L450.875,68.2109 Z " fill="#000000"/><text fill="#000000" font-family="sans-serif" font-size="12" font-style="italic" lengthAdjust="spacing" textLength="23" x="479.75" y="57.1387">«D»</text><text fill="#000000" font-family="sans-serif" font-size="12" font-style="italic" lengthAdjust="spacing" textLength="22" x="480.25" y="71.1074">«S»</text><text fill="#000000" font-family="sans-serif" font-size="12" font-style="italic" lengthAdjust="spacing" textLength="22" x="480.25" y="85.0762">«P»</text><text fill="#000000" font-family="sans-serif" font-size="14" font-style="italic" lengthAdjust="spacing" textLength="37" x="472.75" y="100.9014">Metal</text><line style="stroke:#181818;stroke-width:0.5;" x1="206" x2="744" y1="109.2031" y2="109.2031"/><rect fill="none" height="6" style="stroke:#C82930;stroke-width:1.0;" width="6" x="213" y="119.8516"/><text fill="#000000" font-family="sans-serif" font-size="14" lengthAdjust="spacing" textLength="61" x="225" y="126.1982">String id;</text><rect fill="none" height="6" style="stroke:#C82930;stroke-width:1.0;" width="6" x="213" y="136.1484"/><text fill="#000000" font-family="sans-serif" font-size="14" lengthAdjust="spacing" textLength="88" x="225" y="142.4951">String name;</text><rect fill="none" height="6" style="stroke:#C82930;stroke-width:1.0;" width="6" x="213" y="152.4453"/><text fill="#000000" font-family="sans-serif" font-size="14" lengthAdjust="spacing" textLength="58" x="225" y="158.792">P props;</text><line style="stroke:#181818;stroke-width:0.5;" x1="206" x2="744" y1="166.0938" y2="166.0938"/><ellipse cx="216" cy="179.7422" fill="#84BE84" rx="3" ry="3" style="stroke:#038048;stroke-width:1.0;"/><text fill="#000000" font-family="sans-serif" font-size="14" font-style="italic" lengthAdjust="spacing" textLength="514" x="225" y="183.0889">void translate(Translator&lt;D, S&gt; master, TranslatorContext&lt;D, S&gt; context)</text></g><!--MD5=[fb92ccaddfc22ef9f6594ab87bc4ccd2]
class MSource--><g id="elem_MSource"><rect codeLine="18" fill="#F1F1F1" height="86.5313" id="MSource" rx="2.5" ry="2.5" style="stroke:#181818;stroke-width:0.5;" width="168" x="22" y="250"/><ellipse cx="71.25" cy="277.1172" fill="#A9DCDF" rx="11" ry="11" style="stroke:#181818;stroke-width:1.0;"/><path d="M71.3594,272.4609 L70.2031,277.5391 L72.5313,277.5391 L71.3594,272.4609 Z M69.875,270.2266 L72.8594,270.2266 L76.2188,282.6172 L73.7656,282.6172 L73,279.5547 L69.7188,279.5547 L68.9688,282.6172 L66.5313,282.6172 L69.875,270.2266 Z " fill="#000000"/><text fill="#000000" font-family="sans-serif" font-size="12" font-style="italic" lengthAdjust="spacing" textLength="22" x="111.25" y="266.1387">«S»</text><text fill="#000000" font-family="sans-serif" font-size="12" font-style="italic" lengthAdjust="spacing" textLength="23" x="110.75" y="280.1074">«D»</text><text fill="#000000" font-family="sans-serif" font-size="14" font-style="italic" lengthAdjust="spacing" textLength="61" x="91.75" y="295.9326">MSource</text><line style="stroke:#181818;stroke-width:0.5;" x1="23" x2="189" y1="304.2344" y2="304.2344"/><line style="stroke:#181818;stroke-width:0.5;" x1="23" x2="189" y1="312.2344" y2="312.2344"/><ellipse cx="33" cy="325.8828" fill="#84BE84" rx="3" ry="3" style="stroke:#038048;stroke-width:1.0;"/><text fill="#000000" font-family="sans-serif" font-size="14" font-style="italic" lengthAdjust="spacing" textLength="142" x="42" y="329.2295">D source(S platform)</text></g><!--MD5=[0e23be5f8c3fda13697a420dd948d706]
class MMapper--><g id="elem_MMapper"><rect codeLine="22" fill="#F1F1F1" height="86.5313" id="MMapper" rx="2.5" ry="2.5" style="stroke:#181818;stroke-width:0.5;" width="203" x="224.5" y="250"/><ellipse cx="289.75" cy="277.1172" fill="#A9DCDF" rx="11" ry="11" style="stroke:#181818;stroke-width:1.0;"/><path d="M289.8594,272.4609 L288.7031,277.5391 L291.0313,277.5391 L289.8594,272.4609 Z M288.375,270.2266 L291.3594,270.2266 L294.7188,282.6172 L292.2656,282.6172 L291.5,279.5547 L288.2188,279.5547 L287.4688,282.6172 L285.0313,282.6172 L288.375,270.2266 Z " fill="#000000"/><text fill="#000000" font-family="sans-serif" font-size="12" font-style="italic" lengthAdjust="spacing" textLength="22" x="331.25" y="266.1387">«S»</text><text fill="#000000" font-family="sans-serif" font-size="12" font-style="italic" lengthAdjust="spacing" textLength="23" x="330.75" y="280.1074">«D»</text><text fill="#000000" font-family="sans-serif" font-size="14" font-style="italic" lengthAdjust="spacing" textLength="64" x="310.25" y="295.9326">MMapper</text><line style="stroke:#181818;stroke-width:0.5;" x1="225.5" x2="426.5" y1="304.2344" y2="304.2344"/><line style="stroke:#181818;stroke-width:0.5;" x1="225.5" x2="426.5" y1="312.2344" y2="312.2344"/><ellipse cx="235.5" cy="325.8828" fill="#84BE84" rx="3" ry="3" style="stroke:#038048;stroke-width:1.0;"/><text fill="#000000" font-family="sans-serif" font-size="14" font-style="italic" lengthAdjust="spacing" textLength="177" x="244.5" y="329.2295">D map(S platform, D data)</text></g><!--MD5=[c98ae3c67613a75f712f86b1eba2d39c]
class MFusion--><g id="elem_MFusion"><rect codeLine="26" fill="#F1F1F1" height="86.5313" id="MFusion" rx="2.5" ry="2.5" style="stroke:#181818;stroke-width:0.5;" width="324" x="463" y="250"/><ellipse cx="591.75" cy="277.1172" fill="#A9DCDF" rx="11" ry="11" style="stroke:#181818;stroke-width:1.0;"/><path d="M591.8594,272.4609 L590.7031,277.5391 L593.0313,277.5391 L591.8594,272.4609 Z M590.375,270.2266 L593.3594,270.2266 L596.7188,282.6172 L594.2656,282.6172 L593.5,279.5547 L590.2188,279.5547 L589.4688,282.6172 L587.0313,282.6172 L590.375,270.2266 Z " fill="#000000"/><text fill="#000000" font-family="sans-serif" font-size="12" font-style="italic" lengthAdjust="spacing" textLength="22" x="630.25" y="266.1387">«S»</text><text fill="#000000" font-family="sans-serif" font-size="12" font-style="italic" lengthAdjust="spacing" textLength="23" x="629.75" y="280.1074">«D»</text><text fill="#000000" font-family="sans-serif" font-size="14" font-style="italic" lengthAdjust="spacing" textLength="58" x="612.25" y="295.9326">MFusion</text><line style="stroke:#181818;stroke-width:0.5;" x1="464" x2="786" y1="304.2344" y2="304.2344"/><line style="stroke:#181818;stroke-width:0.5;" x1="464" x2="786" y1="312.2344" y2="312.2344"/><ellipse cx="474" cy="325.8828" fill="#84BE84" rx="3" ry="3" style="stroke:#038048;stroke-width:1.0;"/><text fill="#000000" font-family="sans-serif" font-size="14" font-style="italic" lengthAdjust="spacing" textLength="298" x="483" y="329.2295">D fusion(S platform, Map&lt;String, D&gt; datas)</text></g><!--MD5=[cdc98adadeebeaac1436f1ee37de813a]
class MSink--><g id="elem_MSink"><rect codeLine="30" fill="#F1F1F1" height="86.5313" id="MSink" rx="2.5" ry="2.5" style="stroke:#181818;stroke-width:0.5;" width="266" x="822" y="250"/><ellipse cx="930.25" cy="277.1172" fill="#A9DCDF" rx="11" ry="11" style="stroke:#181818;stroke-width:1.0;"/><path d="M930.3594,272.4609 L929.2031,277.5391 L931.5313,277.5391 L930.3594,272.4609 Z M928.875,270.2266 L931.8594,270.2266 L935.2188,282.6172 L932.7656,282.6172 L932,279.5547 L928.7188,279.5547 L927.9688,282.6172 L925.5313,282.6172 L928.875,270.2266 Z " fill="#000000"/><text fill="#000000" font-family="sans-serif" font-size="12" font-style="italic" lengthAdjust="spacing" textLength="22" x="960.25" y="266.1387">«S»</text><text fill="#000000" font-family="sans-serif" font-size="12" font-style="italic" lengthAdjust="spacing" textLength="23" x="959.75" y="280.1074">«D»</text><text fill="#000000" font-family="sans-serif" font-size="14" font-style="italic" lengthAdjust="spacing" textLength="41" x="950.75" y="295.9326">MSink</text><line style="stroke:#181818;stroke-width:0.5;" x1="823" x2="1087" y1="304.2344" y2="304.2344"/><line style="stroke:#181818;stroke-width:0.5;" x1="823" x2="1087" y1="312.2344" y2="312.2344"/><ellipse cx="833" cy="325.8828" fill="#84BE84" rx="3" ry="3" style="stroke:#038048;stroke-width:1.0;"/><text fill="#000000" font-family="sans-serif" font-size="14" font-style="italic" lengthAdjust="spacing" textLength="240" x="842" y="329.2295">IMExecutor sink(S platform, D data)</text></g><!--MD5=[a3ff793719f6fe439f9d27b721436c2f]
class SparkMSource--><g id="elem_SparkMSource"><rect codeLine="40" fill="#F1F1F1" height="48" id="SparkMSource" rx="2.5" ry="2.5" style="stroke:#181818;stroke-width:0.5;" width="132" x="157" y="412"/><ellipse cx="172" cy="428" fill="#A9DCDF" rx="11" ry="11" style="stroke:#181818;stroke-width:1.0;"/><path d="M172.1094,423.3438 L170.9531,428.4219 L173.2813,428.4219 L172.1094,423.3438 Z M170.625,421.1094 L173.6094,421.1094 L176.9688,433.5 L174.5156,433.5 L173.75,430.4375 L170.4688,430.4375 L169.7188,433.5 L167.2813,433.5 L170.625,421.1094 Z " fill="#000000"/><text fill="#000000" font-family="sans-serif" font-size="14" font-style="italic" lengthAdjust="spacing" textLength="100" x="186" y="432.8467">SparkMSource</text><line style="stroke:#181818;stroke-width:0.5;" x1="158" x2="288" y1="444" y2="444"/><line style="stroke:#181818;stroke-width:0.5;" x1="158" x2="288" y1="452" y2="452"/></g><!--MD5=[6e9ac29eb45d49a15cdc5c990b90a340]
class SparkMMapper--><g id="elem_SparkMMapper"><rect codeLine="41" fill="#F1F1F1" height="48" id="SparkMMapper" rx="2.5" ry="2.5" style="stroke:#181818;stroke-width:0.5;" width="135" x="324.5" y="412"/><ellipse cx="339.5" cy="428" fill="#A9DCDF" rx="11" ry="11" style="stroke:#181818;stroke-width:1.0;"/><path d="M339.6094,423.3438 L338.4531,428.4219 L340.7813,428.4219 L339.6094,423.3438 Z M338.125,421.1094 L341.1094,421.1094 L344.4688,433.5 L342.0156,433.5 L341.25,430.4375 L337.9688,430.4375 L337.2188,433.5 L334.7813,433.5 L338.125,421.1094 Z " fill="#000000"/><text fill="#000000" font-family="sans-serif" font-size="14" font-style="italic" lengthAdjust="spacing" textLength="103" x="353.5" y="432.8467">SparkMMapper</text><line style="stroke:#181818;stroke-width:0.5;" x1="325.5" x2="458.5" y1="444" y2="444"/><line style="stroke:#181818;stroke-width:0.5;" x1="325.5" x2="458.5" y1="452" y2="452"/></g><!--MD5=[0253d107948e475fee5959298c688a5c]
class SparkMFusion--><g id="elem_SparkMFusion"><rect codeLine="42" fill="#F1F1F1" height="48" id="SparkMFusion" rx="2.5" ry="2.5" style="stroke:#181818;stroke-width:0.5;" width="129" x="494.5" y="412"/><ellipse cx="509.5" cy="428" fill="#A9DCDF" rx="11" ry="11" style="stroke:#181818;stroke-width:1.0;"/><path d="M509.6094,423.3438 L508.4531,428.4219 L510.7813,428.4219 L509.6094,423.3438 Z M508.125,421.1094 L511.1094,421.1094 L514.4688,433.5 L512.0156,433.5 L511.25,430.4375 L507.9688,430.4375 L507.2188,433.5 L504.7813,433.5 L508.125,421.1094 Z " fill="#000000"/><text fill="#000000" font-family="sans-serif" font-size="14" font-style="italic" lengthAdjust="spacing" textLength="97" x="523.5" y="432.8467">SparkMFusion</text><line style="stroke:#181818;stroke-width:0.5;" x1="495.5" x2="622.5" y1="444" y2="444"/><line style="stroke:#181818;stroke-width:0.5;" x1="495.5" x2="622.5" y1="452" y2="452"/></g><!--MD5=[760ab1e0a99e9f0390d16356ac773212]
class SparkMSink--><g id="elem_SparkMSink"><rect codeLine="43" fill="#F1F1F1" height="48" id="SparkMSink" rx="2.5" ry="2.5" style="stroke:#181818;stroke-width:0.5;" width="112" x="659" y="412"/><ellipse cx="674" cy="428" fill="#A9DCDF" rx="11" ry="11" style="stroke:#181818;stroke-width:1.0;"/><path d="M674.1094,423.3438 L672.9531,428.4219 L675.2813,428.4219 L674.1094,423.3438 Z M672.625,421.1094 L675.6094,421.1094 L678.9688,433.5 L676.5156,433.5 L675.75,430.4375 L672.4688,430.4375 L671.7188,433.5 L669.2813,433.5 L672.625,421.1094 Z " fill="#000000"/><text fill="#000000" font-family="sans-serif" font-size="14" font-style="italic" lengthAdjust="spacing" textLength="80" x="688" y="432.8467">SparkMSink</text><line style="stroke:#181818;stroke-width:0.5;" x1="660" x2="770" y1="444" y2="444"/><line style="stroke:#181818;stroke-width:0.5;" x1="660" x2="770" y1="452" y2="452"/></g><!--MD5=[3cd8a1c91492e5d2ee00187e807f3187]
class JsonFileSource--><g id="elem_JsonFileSource"><rect codeLine="52" fill="#F1F1F1" height="48" id="JsonFileSource" rx="2.5" ry="2.5" style="stroke:#181818;stroke-width:0.5;" width="133" x="174.5" y="535"/><ellipse cx="189.5" cy="551" fill="#ADD1B2" rx="11" ry="11" style="stroke:#181818;stroke-width:1.0;"/><path d="M192.4688,556.6406 Q191.8906,556.9375 191.25,557.0781 Q190.6094,557.2344 189.9063,557.2344 Q187.4063,557.2344 186.0781,555.5938 Q184.7656,553.9375 184.7656,550.8125 Q184.7656,547.6875 186.0781,546.0313 Q187.4063,544.375 189.9063,544.375 Q190.6094,544.375 191.25,544.5313 Q191.9063,544.6875 192.4688,544.9844 L192.4688,547.7031 Q191.8438,547.125 191.25,546.8594 Q190.6563,546.5781 190.0313,546.5781 Q188.6875,546.5781 188,547.6563 Q187.3125,548.7188 187.3125,550.8125 Q187.3125,552.9063 188,553.9844 Q188.6875,555.0469 190.0313,555.0469 Q190.6563,555.0469 191.25,554.7813 Q191.8438,554.5 192.4688,553.9219 L192.4688,556.6406 Z " fill="#000000"/><text fill="#000000" font-family="sans-serif" font-size="14" lengthAdjust="spacing" textLength="101" x="203.5" y="555.8467">JsonFileSource</text><line style="stroke:#181818;stroke-width:0.5;" x1="175.5" x2="306.5" y1="567" y2="567"/><line style="stroke:#181818;stroke-width:0.5;" x1="175.5" x2="306.5" y1="575" y2="575"/></g><!--MD5=[fcc5ac78bda6191aa1c6b999d81df34d]
class SqlMMapper--><g id="elem_SqlMMapper"><rect codeLine="53" fill="#F1F1F1" height="48" id="SqlMMapper" rx="2.5" ry="2.5" style="stroke:#181818;stroke-width:0.5;" width="117" x="342.5" y="535"/><ellipse cx="357.5" cy="551" fill="#ADD1B2" rx="11" ry="11" style="stroke:#181818;stroke-width:1.0;"/><path d="M360.4688,556.6406 Q359.8906,556.9375 359.25,557.0781 Q358.6094,557.2344 357.9063,557.2344 Q355.4063,557.2344 354.0781,555.5938 Q352.7656,553.9375 352.7656,550.8125 Q352.7656,547.6875 354.0781,546.0313 Q355.4063,544.375 357.9063,544.375 Q358.6094,544.375 359.25,544.5313 Q359.9063,544.6875 360.4688,544.9844 L360.4688,547.7031 Q359.8438,547.125 359.25,546.8594 Q358.6563,546.5781 358.0313,546.5781 Q356.6875,546.5781 356,547.6563 Q355.3125,548.7188 355.3125,550.8125 Q355.3125,552.9063 356,553.9844 Q356.6875,555.0469 358.0313,555.0469 Q358.6563,555.0469 359.25,554.7813 Q359.8438,554.5 360.4688,553.9219 L360.4688,556.6406 Z " fill="#000000"/><text fill="#000000" font-family="sans-serif" font-size="14" lengthAdjust="spacing" textLength="85" x="371.5" y="555.8467">SqlMMapper</text><line style="stroke:#181818;stroke-width:0.5;" x1="343.5" x2="458.5" y1="567" y2="567"/><line style="stroke:#181818;stroke-width:0.5;" x1="343.5" x2="458.5" y1="575" y2="575"/></g><!--MD5=[3c9ca5a714a9e6225f3a08c2f17633fb]
class SqlMFusion--><g id="elem_SqlMFusion"><rect codeLine="54" fill="#F1F1F1" height="48" id="SqlMFusion" rx="2.5" ry="2.5" style="stroke:#181818;stroke-width:0.5;" width="111" x="494.5" y="535"/><ellipse cx="509.5" cy="551" fill="#ADD1B2" rx="11" ry="11" style="stroke:#181818;stroke-width:1.0;"/><path d="M512.4688,556.6406 Q511.8906,556.9375 511.25,557.0781 Q510.6094,557.2344 509.9063,557.2344 Q507.4063,557.2344 506.0781,555.5938 Q504.7656,553.9375 504.7656,550.8125 Q504.7656,547.6875 506.0781,546.0313 Q507.4063,544.375 509.9063,544.375 Q510.6094,544.375 511.25,544.5313 Q511.9063,544.6875 512.4688,544.9844 L512.4688,547.7031 Q511.8438,547.125 511.25,546.8594 Q510.6563,546.5781 510.0313,546.5781 Q508.6875,546.5781 508,547.6563 Q507.3125,548.7188 507.3125,550.8125 Q507.3125,552.9063 508,553.9844 Q508.6875,555.0469 510.0313,555.0469 Q510.6563,555.0469 511.25,554.7813 Q511.8438,554.5 512.4688,553.9219 L512.4688,556.6406 Z " fill="#000000"/><text fill="#000000" font-family="sans-serif" font-size="14" lengthAdjust="spacing" textLength="79" x="523.5" y="555.8467">SqlMFusion</text><line style="stroke:#181818;stroke-width:0.5;" x1="495.5" x2="604.5" y1="567" y2="567"/><line style="stroke:#181818;stroke-width:0.5;" x1="495.5" x2="604.5" y1="575" y2="575"/></g><!--MD5=[b094d1ae4720ebd0b1a4d28973a69768]
class ConsoleMSink--><g id="elem_ConsoleMSink"><rect codeLine="55" fill="#F1F1F1" height="48" id="ConsoleMSink" rx="2.5" ry="2.5" style="stroke:#181818;stroke-width:0.5;" width="130" x="641" y="535"/><ellipse cx="656" cy="551" fill="#ADD1B2" rx="11" ry="11" style="stroke:#181818;stroke-width:1.0;"/><path d="M658.9688,556.6406 Q658.3906,556.9375 657.75,557.0781 Q657.1094,557.2344 656.4063,557.2344 Q653.9063,557.2344 652.5781,555.5938 Q651.2656,553.9375 651.2656,550.8125 Q651.2656,547.6875 652.5781,546.0313 Q653.9063,544.375 656.4063,544.375 Q657.1094,544.375 657.75,544.5313 Q658.4063,544.6875 658.9688,544.9844 L658.9688,547.7031 Q658.3438,547.125 657.75,546.8594 Q657.1563,546.5781 656.5313,546.5781 Q655.1875,546.5781 654.5,547.6563 Q653.8125,548.7188 653.8125,550.8125 Q653.8125,552.9063 654.5,553.9844 Q655.1875,555.0469 656.5313,555.0469 Q657.1563,555.0469 657.75,554.7813 Q658.3438,554.5 658.9688,553.9219 L658.9688,556.6406 Z " fill="#000000"/><text fill="#000000" font-family="sans-serif" font-size="14" lengthAdjust="spacing" textLength="98" x="670" y="555.8467">ConsoleMSink</text><line style="stroke:#181818;stroke-width:0.5;" x1="642" x2="770" y1="567" y2="567"/><line style="stroke:#181818;stroke-width:0.5;" x1="642" x2="770" y1="575" y2="575"/></g><!--MD5=[ab6c2294fd4a468986e9714af57cea70]
reverse link Metal to MSource--><g id="link_Metal_MSource"><path codeLine="34" d="M302.46,198.8 C263.36,217.45 223.54,236.44 190.07,252.4 " fill="none" id="Metal-backto-MSource" style="stroke:#181818;stroke-width:1.0;"/><polygon fill="none" points="299.58,192.41,320.65,190.12,305.61,205.05,299.58,192.41" style="stroke:#181818;stroke-width:1.0;"/></g><!--MD5=[6363388f0205f1f677503f09691346ee]
reverse link Metal to MMapper--><g id="link_Metal_MMapper"><path codeLine="35" d="M399.65,205.51 C386.57,220.95 373.53,236.35 362.14,249.81 " fill="none" id="Metal-backto-MMapper" style="stroke:#181818;stroke-width:1.0;"/><polygon fill="none" points="394.41,200.86,412.67,190.12,405.09,209.91,394.41,200.86" style="stroke:#181818;stroke-width:1.0;"/></g><!--MD5=[bf436de7c9e5cba1cec69c776e8a28eb]
reverse link Metal to MFusion--><g id="link_Metal_MFusion"><path codeLine="36" d="M550.86,205.51 C564.02,220.95 577.15,236.35 588.62,249.81 " fill="none" id="Metal-backto-MFusion" style="stroke:#181818;stroke-width:1.0;"/><polygon fill="none" points="545.39,209.88,537.74,190.12,556.05,200.8,545.39,209.88" style="stroke:#181818;stroke-width:1.0;"/></g><!--MD5=[f4cd8be19e0c156e4c5cd061bc5ffa75]
reverse link Metal to MSink--><g id="link_Metal_MSink"><path codeLine="37" d="M694.78,197.08 C744.53,215.33 795.46,234 838.92,249.94 " fill="none" id="Metal-backto-MSink" style="stroke:#181818;stroke-width:1.0;"/><polygon fill="none" points="692.15,203.58,675.78,190.12,696.97,190.43,692.15,203.58" style="stroke:#181818;stroke-width:1.0;"/></g><!--MD5=[ee8d3260b5aba00769e32f2078b8a4fc]
reverse link MSource to SparkMSource--><g id="link_MSource_SparkMSource"><path codeLine="46" d="M154.33,352.54 C171.66,373.35 190.22,395.64 203.67,411.79 " fill="none" id="MSource-backto-SparkMSource" style="stroke:#181818;stroke-width:1.0;"/><polygon fill="none" points="148.84,356.88,141.42,337.04,159.6,347.93,148.84,356.88" style="stroke:#181818;stroke-width:1.0;"/></g><!--MD5=[33f6e0c696ad41ca406aefc9713a85bf]
reverse link MMapper to SparkMMapper--><g id="link_MMapper_SparkMMapper"><path codeLine="47" d="M354.56,355.3 C363.96,375.31 373.84,396.35 381.1,411.79 " fill="none" id="MMapper-backto-SparkMMapper" style="stroke:#181818;stroke-width:1.0;"/><polygon fill="none" points="348.15,358.11,345.98,337.04,360.82,352.16,348.15,358.11" style="stroke:#181818;stroke-width:1.0;"/></g><!--MD5=[e1ae1a4769a039c6a07f0327d0032f2c]
reverse link MFusion to SparkMFusion--><g id="link_MFusion_SparkMFusion"><path codeLine="48" d="M596.44,355.3 C587.04,375.31 577.16,396.35 569.9,411.79 " fill="none" id="MFusion-backto-SparkMFusion" style="stroke:#181818;stroke-width:1.0;"/><polygon fill="none" points="590.18,352.16,605.02,337.04,602.85,358.11,590.18,352.16" style="stroke:#181818;stroke-width:1.0;"/></g><!--MD5=[19c7f03cc281c6fd24f980147297790b]
reverse link MSink to SparkMSink--><g id="link_MSink_SparkMSink"><path codeLine="49" d="M864.89,347.25 C826.73,369.59 784.27,394.45 754.31,411.99 " fill="none" id="MSink-backto-SparkMSink" style="stroke:#181818;stroke-width:1.0;"/><polygon fill="none" points="861.54,341.1,882.34,337.04,868.62,353.18,861.54,341.1" style="stroke:#181818;stroke-width:1.0;"/></g><!--MD5=[cee44bc398cba83f09577c4d8e3b1cb5]
reverse link SparkMSource to JsonFileSource--><g id="link_SparkMSource_JsonFileSource"><path codeLine="58" d="M229.41,480.08 C232.14,498.46 235.22,519.18 237.52,534.63 " fill="none" id="SparkMSource-backto-JsonFileSource" style="stroke:#181818;stroke-width:1.0;"/><polygon fill="none" points="222.45,480.86,226.43,460.04,236.29,478.8,222.45,480.86" style="stroke:#181818;stroke-width:1.0;"/></g><!--MD5=[ace73326bd83c2bf032ef2a494e814a1]
reverse link SparkMMapper to SqlMMapper--><g id="link_SparkMMapper_SqlMMapper"><path codeLine="59" d="M395.2,480.08 C396.57,498.46 398.11,519.18 399.26,534.63 " fill="none" id="SparkMMapper-backto-SqlMMapper" style="stroke:#181818;stroke-width:1.0;"/><polygon fill="none" points="388.22,480.51,393.71,460.04,402.18,479.47,388.22,480.51" style="stroke:#181818;stroke-width:1.0;"/></g><!--MD5=[97c55a2a4964624b977be8f26185e885]
reverse link SparkMFusion to SqlMFusion--><g id="link_SparkMFusion_SqlMFusion"><path codeLine="60" d="M555.8,480.08 C554.43,498.46 552.89,519.18 551.74,534.63 " fill="none" id="SparkMFusion-backto-SqlMFusion" style="stroke:#181818;stroke-width:1.0;"/><polygon fill="none" points="548.82,479.47,557.29,460.04,562.78,480.51,548.82,479.47" style="stroke:#181818;stroke-width:1.0;"/></g><!--MD5=[7006b9189a380319c7459e657f58f47c]
reverse link SparkMSink to ConsoleMSink--><g id="link_SparkMSink_ConsoleMSink"><path codeLine="61" d="M711.8,480.08 C710.43,498.46 708.89,519.18 707.74,534.63 " fill="none" id="SparkMSink-backto-ConsoleMSink" style="stroke:#181818;stroke-width:1.0;"/><polygon fill="none" points="704.82,479.47,713.29,460.04,718.78,480.51,704.82,479.47" style="stroke:#181818;stroke-width:1.0;"/></g><!--MD5=[af949cbea584731dd278b0bdb4a574d6]
@startuml
top to bottom direction

package "metal-core" {
  abstract class Metal
  abstract class MSource
  abstract class MMapper
  abstract class MFusion
  abstract class MSink
}

abstract class Metal <<D>><<S>><<P>>{
  - String id;
  - String name;
  - P props;
  + {abstract} void translate(Translator<D, S> master, TranslatorContext<D, S> context) 
}

abstract class MSource <<S>><<D>>{
 + {abstract} D source(S platform)
}

abstract class MMapper <<S>><<D>> {
 + {abstract}D map(S platform, D data)
}

abstract class MFusion <<S>><<D>> {
 + {abstract}D fusion(S platform, Map<String, D> datas)
}

abstract class MSink <<S>><<D>> {
 + {abstract}IMExecutor sink(S platform, D data)
}

Metal <|- - MSource
Metal <|- - MMapper
Metal <|- - MFusion
Metal <|- - MSink

package "metal-on-spark" {
abstract class SparkMSource
abstract class SparkMMapper
abstract class SparkMFusion
abstract class SparkMSink
}

MSource <|- - SparkMSource
MMapper <|- - SparkMMapper
MFusion <|- - SparkMFusion
MSink <|- - SparkMSink

package "metal-on-spark-extensions" {
class JsonFileSource
class SqlMMapper
class SqlMFusion
class ConsoleMSink
}

SparkMSource <|- - JsonFileSource
SparkMMapper <|- - SqlMMapper
SparkMFusion <|- - SqlMFusion
SparkMSink <|- - ConsoleMSink
@enduml

PlantUML version 1.2022.7(Mon Aug 22 17:01:30 UTC 2022)
(GPL source distribution)
Java Runtime: OpenJDK Runtime Environment
JVM: OpenJDK 64-Bit Server VM
Default Encoding: UTF-8
Language: en
Country: null
--></g></svg>